<mxfile host="app.diagrams.net" modified="2024-05-23T07:08:02.876Z" agent="Mozilla/5.0 (Windows NT 10.0; Win64; x64) AppleWebKit/537.36 (KHTML, like Gecko) Chrome/109.0.0.0 Safari/537.36" etag="7QxqgV2OGz0xFmRlM-lM" version="24.4.6" type="github">
  <diagram name="Page-1" id="edf60f1a-56cd-e834-aa8a-f176f3a09ee4">
    <mxGraphModel dx="1571" dy="727" grid="1" gridSize="10" guides="1" tooltips="1" connect="1" arrows="1" fold="1" page="1" pageScale="1" pageWidth="1100" pageHeight="850" background="#ffffff" math="0" shadow="0">
      <root>
        <mxCell id="0" />
        <mxCell id="1" parent="0" />
        <mxCell id="Ujwc78g9HvCCPEreFljb-10" value="" style="edgeStyle=orthogonalEdgeStyle;rounded=0;orthogonalLoop=1;jettySize=auto;html=1;fontSize=14;strokeWidth=2;" edge="1" parent="1" target="Ujwc78g9HvCCPEreFljb-8">
          <mxGeometry relative="1" as="geometry">
            <mxPoint x="560" y="160" as="sourcePoint" />
          </mxGeometry>
        </mxCell>
        <mxCell id="60e70716793133e9-35" value="Yes" style="edgeStyle=orthogonalEdgeStyle;rounded=0;html=1;labelBackgroundColor=none;startSize=5;endArrow=classicThin;endFill=1;endSize=5;jettySize=auto;orthogonalLoop=1;strokeWidth=2;fontFamily=Verdana;fontSize=14;entryX=0.5;entryY=0;entryDx=0;entryDy=0;entryPerimeter=0;exitX=0.5;exitY=1;exitDx=0;exitDy=0;" parent="1" source="Ujwc78g9HvCCPEreFljb-14" target="Ujwc78g9HvCCPEreFljb-19" edge="1">
          <mxGeometry x="-0.5686" y="20" relative="1" as="geometry">
            <mxPoint x="541.9999999999999" y="570" as="targetPoint" />
            <Array as="points" />
            <mxPoint as="offset" />
            <mxPoint x="541.9999999999999" y="530" as="sourcePoint" />
          </mxGeometry>
        </mxCell>
        <mxCell id="60e70716793133e9-7" value="&lt;span style=&quot;background-color: initial; font-size: 14px;&quot;&gt;Ball bounce on&lt;/span&gt;&lt;div style=&quot;font-size: 14px;&quot;&gt;&lt;span style=&quot;background-color: initial; font-size: 14px;&quot;&gt;&amp;nbsp;the&amp;nbsp;&lt;/span&gt;&lt;span style=&quot;background-color: initial; font-size: 14px;&quot;&gt;paddle box?&lt;/span&gt;&lt;/div&gt;" style="rhombus;whiteSpace=wrap;html=1;rounded=0;shadow=1;labelBackgroundColor=none;strokeWidth=2;fontFamily=Verdana;fontSize=14;align=center;" parent="1" vertex="1">
          <mxGeometry x="170" y="310" width="180" height="100" as="geometry" />
        </mxCell>
        <mxCell id="Ujwc78g9HvCCPEreFljb-85" value="" style="edgeStyle=none;rounded=0;orthogonalLoop=1;jettySize=auto;html=1;fontSize=14;strokeWidth=2;" edge="1" parent="1" source="60e70716793133e9-10" target="Ujwc78g9HvCCPEreFljb-14">
          <mxGeometry relative="1" as="geometry" />
        </mxCell>
        <mxCell id="60e70716793133e9-10" value="Ball moves in the&lt;div style=&quot;font-size: 14px;&quot;&gt;&amp;nbsp;opposite direction&lt;/div&gt;" style="whiteSpace=wrap;html=1;rounded=0;shadow=1;labelBackgroundColor=none;strokeWidth=2;fontFamily=Verdana;fontSize=14;align=center;" parent="1" vertex="1">
          <mxGeometry x="170" y="580" width="180" height="72.5" as="geometry" />
        </mxCell>
        <mxCell id="Ujwc78g9HvCCPEreFljb-21" value="" style="edgeStyle=orthogonalEdgeStyle;rounded=0;orthogonalLoop=1;jettySize=auto;html=1;endArrow=classic;endFill=1;exitX=0;exitY=0.5;exitDx=0;exitDy=0;entryX=0.5;entryY=0;entryDx=0;entryDy=0;fontSize=14;strokeWidth=2;" edge="1" parent="1" source="60e70716793133e9-12" target="Ujwc78g9HvCCPEreFljb-14">
          <mxGeometry relative="1" as="geometry">
            <mxPoint x="610" y="404" as="sourcePoint" />
            <mxPoint x="550" y="474" as="targetPoint" />
            <Array as="points">
              <mxPoint x="677" y="480" />
              <mxPoint x="560" y="480" />
            </Array>
          </mxGeometry>
        </mxCell>
        <mxCell id="60e70716793133e9-12" value="Player / Computer&amp;nbsp;&lt;div style=&quot;font-size: 14px;&quot;&gt;Score + 1&lt;/div&gt;" style="whiteSpace=wrap;html=1;rounded=0;shadow=1;labelBackgroundColor=none;strokeWidth=2;fontFamily=Verdana;fontSize=14;align=center;spacing=6;" parent="1" vertex="1">
          <mxGeometry x="660" y="460" width="180" height="70" as="geometry" />
        </mxCell>
        <mxCell id="Ujwc78g9HvCCPEreFljb-6" value="" style="edgeStyle=orthogonalEdgeStyle;rounded=0;orthogonalLoop=1;jettySize=auto;html=1;fontSize=14;strokeWidth=2;" edge="1" parent="1" source="Ujwc78g9HvCCPEreFljb-1">
          <mxGeometry relative="1" as="geometry">
            <mxPoint x="560" y="110" as="targetPoint" />
          </mxGeometry>
        </mxCell>
        <mxCell id="Ujwc78g9HvCCPEreFljb-1" value="Start" style="strokeWidth=1;html=1;shape=mxgraph.flowchart.terminator;whiteSpace=wrap;rounded=0;shadow=1;labelBackgroundColor=none;fontFamily=Verdana;fontSize=14;align=center;" vertex="1" parent="1">
          <mxGeometry x="480" y="10" width="160" height="50" as="geometry" />
        </mxCell>
        <mxCell id="Ujwc78g9HvCCPEreFljb-11" value="" style="edgeStyle=orthogonalEdgeStyle;rounded=0;orthogonalLoop=1;jettySize=auto;html=1;entryX=0.5;entryY=0;entryDx=0;entryDy=0;exitX=0;exitY=0.5;exitDx=0;exitDy=0;fontSize=14;strokeWidth=2;" edge="1" parent="1" source="Ujwc78g9HvCCPEreFljb-8" target="60e70716793133e9-7">
          <mxGeometry relative="1" as="geometry">
            <mxPoint x="500" y="190" as="sourcePoint" />
            <mxPoint x="380" y="250" as="targetPoint" />
            <Array as="points">
              <mxPoint x="260" y="230" />
            </Array>
          </mxGeometry>
        </mxCell>
        <mxCell id="Ujwc78g9HvCCPEreFljb-8" value="Ball moves" style="whiteSpace=wrap;html=1;rounded=0;shadow=1;labelBackgroundColor=none;strokeWidth=2;fontFamily=Verdana;fontSize=14;align=center;spacing=6;" vertex="1" parent="1">
          <mxGeometry x="460" y="210" width="200" height="40" as="geometry" />
        </mxCell>
        <mxCell id="Ujwc78g9HvCCPEreFljb-14" value="Score&amp;nbsp;â‰¥ 5?" style="rhombus;whiteSpace=wrap;html=1;rounded=0;shadow=1;labelBackgroundColor=none;strokeWidth=2;fontFamily=Verdana;fontSize=14;align=center;" vertex="1" parent="1">
          <mxGeometry x="470" y="566.25" width="180" height="100" as="geometry" />
        </mxCell>
        <mxCell id="Ujwc78g9HvCCPEreFljb-18" value="" style="edgeStyle=orthogonalEdgeStyle;rounded=0;orthogonalLoop=1;jettySize=auto;html=1;fontSize=14;strokeWidth=2;" edge="1" parent="1" source="Ujwc78g9HvCCPEreFljb-16" target="60e70716793133e9-12">
          <mxGeometry relative="1" as="geometry" />
        </mxCell>
        <mxCell id="Ujwc78g9HvCCPEreFljb-34" style="edgeStyle=orthogonalEdgeStyle;rounded=0;orthogonalLoop=1;jettySize=auto;html=1;endArrow=classic;endFill=1;entryX=1;entryY=0.5;entryDx=0;entryDy=0;exitX=1;exitY=0.5;exitDx=0;exitDy=0;fontSize=14;strokeWidth=2;" edge="1" parent="1" source="Ujwc78g9HvCCPEreFljb-16" target="Ujwc78g9HvCCPEreFljb-8">
          <mxGeometry relative="1" as="geometry">
            <mxPoint x="690" y="226" as="targetPoint" />
            <mxPoint x="770" y="330" as="sourcePoint" />
            <Array as="points">
              <mxPoint x="890" y="360" />
              <mxPoint x="890" y="230" />
            </Array>
          </mxGeometry>
        </mxCell>
        <mxCell id="Ujwc78g9HvCCPEreFljb-16" value="Into scoring&amp;nbsp;&lt;div style=&quot;font-size: 14px;&quot;&gt;region?&lt;/div&gt;" style="rhombus;whiteSpace=wrap;html=1;rounded=0;shadow=1;labelBackgroundColor=none;strokeWidth=2;fontFamily=Verdana;fontSize=14;align=center;" vertex="1" parent="1">
          <mxGeometry x="660" y="310" width="180" height="100" as="geometry" />
        </mxCell>
        <mxCell id="Ujwc78g9HvCCPEreFljb-19" value="End" style="strokeWidth=2;html=1;shape=mxgraph.flowchart.terminator;whiteSpace=wrap;rounded=0;shadow=1;labelBackgroundColor=none;fontFamily=Verdana;fontSize=14;align=center;" vertex="1" parent="1">
          <mxGeometry x="480" y="730" width="160" height="50" as="geometry" />
        </mxCell>
        <mxCell id="Ujwc78g9HvCCPEreFljb-69" value="No" style="edgeStyle=orthogonalEdgeStyle;rounded=0;html=1;labelBackgroundColor=none;startSize=5;endArrow=none;endFill=0;endSize=5;jettySize=auto;orthogonalLoop=1;strokeWidth=2;fontFamily=Verdana;fontSize=14;exitX=1;exitY=0.5;exitDx=0;exitDy=0;" edge="1" parent="1" source="Ujwc78g9HvCCPEreFljb-14">
          <mxGeometry x="-0.964" y="-14" relative="1" as="geometry">
            <mxPoint x="890" y="300" as="targetPoint" />
            <Array as="points">
              <mxPoint x="890" y="546" />
              <mxPoint x="890" y="290" />
            </Array>
            <mxPoint x="-1" as="offset" />
            <mxPoint x="560" y="520" as="sourcePoint" />
          </mxGeometry>
        </mxCell>
        <mxCell id="Ujwc78g9HvCCPEreFljb-70" value="Yes" style="edgeStyle=orthogonalEdgeStyle;rounded=0;html=1;labelBackgroundColor=none;startSize=5;endArrow=classic;endFill=1;endSize=5;jettySize=auto;orthogonalLoop=1;strokeWidth=2;fontFamily=Verdana;fontSize=14;entryX=0.5;entryY=0;entryDx=0;entryDy=0;exitX=0.5;exitY=1;exitDx=0;exitDy=0;" edge="1" parent="1" source="60e70716793133e9-7" target="60e70716793133e9-10">
          <mxGeometry x="-0.6471" y="20" relative="1" as="geometry">
            <mxPoint x="542.28" y="380" as="targetPoint" />
            <Array as="points" />
            <mxPoint y="1" as="offset" />
            <mxPoint x="542.28" y="330" as="sourcePoint" />
          </mxGeometry>
        </mxCell>
        <mxCell id="Ujwc78g9HvCCPEreFljb-71" value="No" style="edgeStyle=orthogonalEdgeStyle;rounded=0;html=1;labelBackgroundColor=none;startSize=5;endArrow=classic;endFill=1;endSize=5;jettySize=auto;orthogonalLoop=1;strokeWidth=2;fontFamily=Verdana;fontSize=14;entryX=0;entryY=0.5;entryDx=0;entryDy=0;exitX=1;exitY=0.5;exitDx=0;exitDy=0;" edge="1" parent="1" source="60e70716793133e9-7" target="Ujwc78g9HvCCPEreFljb-78">
          <mxGeometry x="-0.7143" y="10" relative="1" as="geometry">
            <mxPoint x="475" y="295" as="targetPoint" />
            <Array as="points" />
            <mxPoint x="1" as="offset" />
            <mxPoint x="430" y="295" as="sourcePoint" />
          </mxGeometry>
        </mxCell>
        <mxCell id="Ujwc78g9HvCCPEreFljb-73" style="edgeStyle=none;rounded=0;orthogonalLoop=1;jettySize=auto;html=1;exitX=0.5;exitY=1;exitDx=0;exitDy=0;exitPerimeter=0;fontSize=14;strokeWidth=2;" edge="1" parent="1" source="Ujwc78g9HvCCPEreFljb-19" target="Ujwc78g9HvCCPEreFljb-19">
          <mxGeometry relative="1" as="geometry" />
        </mxCell>
        <mxCell id="Ujwc78g9HvCCPEreFljb-78" value="Ball bounce on&lt;div style=&quot;font-size: 14px;&quot;&gt;&amp;nbsp;the border?&lt;/div&gt;" style="rhombus;whiteSpace=wrap;html=1;rounded=0;shadow=1;labelBackgroundColor=none;strokeWidth=2;fontFamily=Verdana;fontSize=14;align=center;" vertex="1" parent="1">
          <mxGeometry x="420" y="310" width="180" height="100" as="geometry" />
        </mxCell>
        <mxCell id="Ujwc78g9HvCCPEreFljb-81" value="Yes" style="edgeStyle=orthogonalEdgeStyle;rounded=0;html=1;labelBackgroundColor=none;startSize=5;endArrow=classic;endFill=1;endSize=5;jettySize=auto;orthogonalLoop=1;strokeWidth=2;fontFamily=Verdana;fontSize=14;entryX=0;entryY=0.5;entryDx=0;entryDy=0;exitX=1;exitY=0.5;exitDx=0;exitDy=0;" edge="1" parent="1" source="Ujwc78g9HvCCPEreFljb-78" target="Ujwc78g9HvCCPEreFljb-16">
          <mxGeometry x="-0.6667" y="10" relative="1" as="geometry">
            <mxPoint x="645" y="294.79" as="targetPoint" />
            <Array as="points" />
            <mxPoint x="1" as="offset" />
            <mxPoint x="600" y="294.79" as="sourcePoint" />
          </mxGeometry>
        </mxCell>
        <mxCell id="Ujwc78g9HvCCPEreFljb-86" value="&lt;span style=&quot;font-family: Verdana; font-size: 14px;&quot;&gt;Initialize the ball at the starting position&lt;/span&gt;" style="shape=parallelogram;perimeter=parallelogramPerimeter;whiteSpace=wrap;html=1;fixedSize=1;fontSize=14;strokeWidth=2;" vertex="1" parent="1">
          <mxGeometry x="455" y="100" width="210" height="70" as="geometry" />
        </mxCell>
      </root>
    </mxGraphModel>
  </diagram>
</mxfile>
